<?xml version="1.0" encoding="UTF-8" standalone="no"?>
<!-- Created with Inkscape (http://www.inkscape.org/) -->

<svg
   width="163.12624"
   height="50.098263"
   viewBox="0 0 43.160484 13.255155"
   version="1.1"
   id="svg287"
   xmlns="http://www.w3.org/2000/svg"
   xmlns:svg="http://www.w3.org/2000/svg">
  <defs
     id="defs284" />
  <g
     id="layer1"
     transform="translate(-6.4655932,-0.38387584)">
    <g
       id="g288"
       transform="matrix(0.25849687,0,0,0.25849687,6.4655933,0.19566915)">
      <g
         id="g360"
         transform="matrix(0.52235168,0,0,0.52235168,-24.750655,-0.55539663)">
        <path
           style="fill:#000000;stroke-width:0.142406"
           d="m 177.82105,95.983563 9.32509,-4.655336 0.10273,-0.640828 c 0.58239,-3.633841 1.78152,-16.904042 1.54854,-17.137025 -0.0861,-0.0861 -1.76594,0.415569 -4.59364,1.372038 -3.82632,1.294247 -6.40123,2.204337 -13.99889,4.947848 -0.70492,0.254545 -1.36176,0.525446 -1.45965,0.602009 -0.12592,0.09849 -0.17727,0.66542 -0.17547,1.937442 0.001,0.989031 -0.0737,5.436677 -0.167,9.883646 -0.10347,4.937974 -0.11838,8.136053 -0.0382,8.215483 0.0796,0.0788 3.80703,-1.704914 9.45646,-4.525277 z M 165.97581,100.42 c 0.0831,-0.15732 0.18069,-4.204231 0.2434,-10.092192 0.0878,-8.255926 0.0733,-9.85465 -0.091,-9.986253 -0.22092,-0.176991 -12.68991,-4.335565 -12.76738,-4.258087 -0.0275,0.02753 0.0172,2.663506 0.0995,5.857851 0.0822,3.194345 0.13136,5.825939 0.10927,5.848002 -0.022,0.02203 -1.86333,-0.681138 -4.09172,-1.562645 l -4.05163,-1.602742 -0.0914,-1.774452 c -0.0503,-0.975955 -0.14023,-3.494005 -0.19992,-5.595673 l -0.1085,-3.821196 -0.36548,-0.138961 c -0.52832,-0.20087 -6.55836,-1.987373 -9.04733,-2.680438 -1.73244,-0.482408 -2.15372,-0.556844 -2.29113,-0.404855 -0.12389,0.137057 -0.13812,0.656346 -0.0538,1.966311 0.28627,4.449785 1.32504,14.501351 1.51863,14.69495 0.0588,0.05882 1.73977,0.805619 3.73535,1.659482 4.9432,2.115084 8.3018,3.609789 18.29611,8.142482 4.69937,2.131303 8.65098,3.905686 8.78135,3.943066 0.13696,0.0393 0.29557,-0.0429 0.37574,-0.19465 z M 152.41354,84.813166 c -0.0434,-0.724488 -0.11839,-3.086308 -0.16665,-5.248497 l -0.0876,-3.93126 -1.94242,-0.61122 c -1.06833,-0.336164 -2.41671,-0.759953 -2.99639,-0.941751 l -1.05394,-0.330532 0.0941,3.235342 c 0.0518,1.779434 0.13435,4.074851 0.18354,5.100913 l 0.0895,1.865583 2.8641,1.092389 c 1.57526,0.600808 2.91604,1.091012 2.97952,1.089335 0.0634,-0.0013 0.0798,-0.595814 0.0364,-1.320302 z m -3.34313,-2.46798 c -0.59928,-0.23979 -0.86723,-0.709008 -0.86723,-1.518644 0,-0.230767 -0.13602,-0.610607 -0.30227,-0.844076 -1.21071,-1.700281 0.15405,-3.368635 1.92925,-2.358442 1.11624,0.635223 1.54217,2.227315 0.80559,3.011359 -0.2094,0.222895 -0.29649,0.503194 -0.29649,0.954354 0,0.985891 -0.27849,1.151708 -1.26885,0.755449 z m 36.5035,-9.502556 c 0.46403,-0.17156 0.86552,-0.378975 0.89221,-0.460908 0.0278,-0.08535 -1.10778,-0.443988 -2.65935,-0.839871 -1.48934,-0.37999 -2.70791,-0.716029 -2.70791,-0.746739 0,-0.03066 0.12452,-0.299909 0.2767,-0.598204 l 0.27669,-0.542378 2.89184,0.759717 c 1.5905,0.417846 3.00396,0.76058 3.14103,0.761655 0.42676,0.0038 0.27506,-0.36979 -0.36286,-0.89252 -0.48293,-0.395719 -0.95619,-0.592585 -2.24289,-0.932953 -0.89693,-0.237262 -2.59205,-0.686845 -3.76689,-0.999056 -11.61047,-3.085545 -21.7089,-5.612393 -26.89593,-6.729936 -0.45963,-0.09899 -0.94764,-0.280299 -1.08446,-0.402828 -0.24033,-0.215224 -1.9287,-2.909491 -5.27086,-8.411093 -0.88025,-1.448976 -1.61819,-2.654446 -1.63988,-2.678836 -0.1219,-0.136983 -1.6359,-0.190871 -1.6359,-0.05819 0,0.154516 2.24261,3.986775 5.51845,9.430122 l 1.84255,3.061717 1.83338,0.399137 c 1.00836,0.219528 1.86164,0.427419 1.8962,0.461971 0.10231,0.102367 -0.46167,1.061366 -0.62433,1.061366 -0.0822,0 -1.11962,-0.213785 -2.30545,-0.475075 l -2.15605,-0.475074 -1.96993,0.60326 c -6.63025,2.030411 -14.31838,4.459547 -14.41263,4.553793 -0.0385,0.03855 -0.01,0.123517 0.0629,0.189044 0.17398,0.155818 1.48196,0.506736 1.79958,0.482808 0.13607,-0.01 1.38675,-0.368827 2.7793,-0.796835 10.48093,-3.221401 11.62632,-3.543924 12.2713,-3.455522 1.74749,0.239515 17.01392,3.933338 28.2829,6.843254 2.58466,0.667422 4.79551,1.210488 4.91298,1.206821 0.11751,-0.0038 0.59328,-0.147045 1.05732,-0.318618 z m -16.03229,-4.916737 c -3.47306,-0.859194 -6.95547,-1.709178 -7.7387,-1.88886 -0.78323,-0.179695 -1.4501,-0.345475 -1.48194,-0.368414 -0.0318,-0.0229 0.0575,-0.297582 0.19852,-0.610331 0.20551,-0.455715 0.31597,-0.554817 0.55632,-0.499052 4.25318,0.986766 15.47223,3.757484 15.64365,3.863432 0.17492,0.108125 -0.49622,1.206195 -0.69142,1.131295 -0.0944,-0.03629 -3.01338,-0.768889 -6.48643,-1.62807 z m 19.95713,2.046881 c 0.37618,-0.98942 1.35014,-4.854942 1.84922,-7.339266 0.73289,-3.648108 0.898,-5.110424 0.83748,-7.416617 -0.0464,-1.770611 -0.0782,-1.958791 -0.43308,-2.562315 -0.67516,-1.148428 -1.63315,-2.083672 -2.64422,-2.581423 -0.83864,-0.412865 -1.10447,-0.470531 -2.38751,-0.518036 -1.64138,-0.06082 -3.03492,0.221268 -5.1008,1.032293 -2.34896,0.922167 -6.35961,3.226596 -6.35961,3.654091 0,0.338077 13.47751,16.001835 13.81515,16.056173 0.19598,0.03153 0.32569,-0.06795 0.42337,-0.3249 z M 160.40907,52.530508 c 1.14784,-1.446648 1.13985,-1.431857 0.77328,-1.431857 -0.15854,0 -0.32254,-0.05544 -0.36442,-0.123266 -0.042,-0.06771 0.62269,-0.80472 1.47683,-1.637658 0.85416,-0.832951 1.54149,-1.518707 1.52742,-1.523913 -0.0142,-0.005 -0.62377,-0.0881 -1.35488,-0.184325 -1.2998,-0.17096 -1.33929,-0.167532 -1.78006,0.154491 -0.4751,0.347088 -2.81995,2.630606 -2.76141,2.689148 0.0187,0.01877 0.60348,0.133542 1.29929,0.254995 0.69583,0.121515 1.29394,0.249614 1.32912,0.284792 0.0351,0.03516 -0.27668,0.489091 -0.69307,1.008679 -0.59393,0.74117 -0.81913,0.928037 -1.0453,0.867354 -0.15856,-0.04254 -0.67278,-0.151012 -1.14273,-0.241054 -0.46993,-0.08998 -0.91078,-0.214599 -0.97964,-0.276807 -0.0689,-0.0622 0.138,-0.484123 0.45995,-0.937949 0.49158,-0.692951 0.55008,-0.844476 0.36576,-0.947621 -0.12064,-0.06758 -0.31159,-0.08735 -0.42428,-0.04418 -0.19362,0.07433 -1.62906,2.150839 -1.62906,2.356639 0,0.05306 0.89473,0.288621 1.9883,0.523556 l 1.98829,0.427132 z m 15.06479,-0.07159 c 2.08026,-1.304171 5.29296,-2.918776 6.83545,-3.435299 0.6266,-0.20983 1.61985,-0.423165 2.20728,-0.474086 l 1.06805,-0.09261 -0.71202,-0.239927 c -4.99116,-1.681896 -25.46696,-5.222829 -30.47481,-5.270084 -1.71018,-0.01614 -2.20104,0.133992 -4.45993,1.36409 -2.3867,1.299703 -5.62009,3.813211 -5.38814,4.18852 0.0538,0.08697 0.46525,0.199669 0.91438,0.250303 1.75166,0.197502 7.47071,0.968408 9.42709,1.270744 l 2.05985,0.318318 1.42909,-1.443532 c 0.78598,-0.793944 1.69279,-1.61901 2.01512,-1.833496 l 0.58603,-0.389975 2.32902,0.298495 c 1.28098,0.164176 2.34511,0.314563 2.36475,0.334198 0.0197,0.01964 -0.53578,0.504572 -1.23423,1.077634 -1.37891,1.131347 -2.90418,2.669777 -2.7402,2.763823 0.0562,0.03229 0.42268,0.104375 0.81429,0.160148 0.53075,0.07571 8.22556,1.59477 10.96525,2.164779 0.17976,0.03742 0.9151,-0.335889 1.99368,-1.012059 z"
           id="path912" />
        <g
           transform="matrix(0.33821343,0,0,-0.33821343,47.126884,100.80278)"
           id="g992"
           style="fill:#000000;fill-opacity:1;stroke:#000000;stroke-width:0.283465;stroke-miterlimit:4;stroke-dasharray:none;stroke-opacity:1">
          <g
             transform="scale(0.1)"
             id="g994"
             style="fill:#000000;fill-opacity:1;stroke:#000000;stroke-width:2.83465;stroke-miterlimit:4;stroke-dasharray:none;stroke-opacity:1">
            <path
               id="path1146"
               style="fill:#000000;fill-opacity:1;fill-rule:evenodd;stroke:#000000;stroke-width:2.83465;stroke-miterlimit:4;stroke-dasharray:none;stroke-opacity:1"
               d="m 1916.94,210.492 c 8.58,-3.433 12.02,-12.004 20.6,-12.004 10.28,0 17.16,-1.726 20.59,1.711 5.14,1.719 10.3,5.137 8.57,-1.711 -1.7,-6.871 -15.44,-22.312 -22.31,-22.312 -6.85,0 -29.18,6.863 -32.6,17.152 -3.43,10.305 -5.15,22.309 5.15,17.164 m 39.46,-54.918 c -6.85,-1.707 -13.72,-6.871 -12.01,-10.289 1.72,-1.722 8.59,-3.433 15.44,-1.722 6.87,3.433 12.02,6.863 12.02,10.304 -1.71,3.434 -8.58,3.434 -15.45,1.707 m -3.42,89.246 c -5.16,8.567 -12.03,13.723 -15.44,12.004 -1.73,-1.711 0,-10.301 5.14,-18.875 5.14,-8.582 12.02,-15.453 13.72,-12.015 3.43,1.711 1.73,10.304 -3.42,18.886 m 13.72,46.332 c -5.14,5.149 -10.3,6.864 -12,5.149 -1.72,-3.434 1.7,-8.586 6.86,-12.016 5.14,-5.152 10.29,-6.859 12.01,-3.441 1.72,1.726 0,6.871 -6.87,10.308 m -163.01,538.84 1.7,-3.426 c 0,0 84.09,6.852 85.81,3.426 0,-5.144 32.61,-147.59 25.74,-149.297 -5.15,-1.715 -70.36,-44.621 -65.21,-53.195 5.14,-8.586 12.01,1.707 22.32,5.145 10.28,3.429 60.05,3.429 60.05,-1.715 0,-5.157 13.72,-106.399 10.29,-108.114 -5.15,0 -15.43,-12.011 -10.29,-22.308 3.44,-10.297 20.6,-13.731 22.3,-24.035 0,-8.575 -8.58,-42.895 -8.58,-51.465 0,-8.578 24.03,-58.356 34.32,-85.813 8.59,-27.449 17.18,-66.929 10.31,-68.64 -5.15,-1.727 -30.89,-1.727 -32.62,-6.867 -1.7,-5.145 12.02,-30.883 18.89,-34.321 6.85,-5.148 17.16,-20.59 17.16,-37.75 0,-18.875 8.58,-92.6678 -3.43,-92.6678 -12.02,0 -58.35,-1.7187 -60.06,3.4258 -3.43,5.16 -12.01,24.035 -15.45,24.035 -3.43,0 1.71,-17.164 0,-20.601 -1.73,-3.434 -10.3,-1.707 -12.01,3.437 0,3.434 -22.3,51.481 -32.61,58.344 -10.3,8.586 -15.45,8.586 -12.02,1.719 1.72,-5.145 37.75,-58.356 32.61,-65.207 -5.14,-6.8715 -13.72,-1.727 -13.72,-1.727 0,0 1.71,12.016 -5.14,20.602 -5.16,10.289 -34.34,41.187 -37.77,48.039 -3.42,6.871 -8.58,25.746 -3.42,30.902 5.14,5.141 6.85,8.574 6.85,12.012 0,5.144 -22.3,29.164 3.43,46.328 25.75,17.168 75.51,51.488 72.07,87.519 -1.7,34.313 -10.28,82.371 -10.28,92.668 0,8.578 8.58,17.16 6.86,27.453 -1.72,10.301 -17.17,20.602 -27.46,29.176 -10.28,6.867 -72.06,36.043 -78.94,60.063 -6.87,22.304 0,80.656 3.44,104.683 3.44,22.309 3.44,94.379 1.71,109.828 0,15.438 -10.29,58.344 -6.85,58.344 m 48.04,-398.125 c 0,-17.164 1.72,-29.168 6.87,-29.168 5.14,0 24.03,12.004 22.3,20.582 0,8.586 -27.45,24.035 -29.17,8.586 m -13.73,6.852 c -1.72,-12.008 8.58,-54.903 18.87,-51.473 10.31,1.715 29.19,22.313 30.9,30.887 1.71,6.875 -1.71,22.312 -12.01,27.457 -12.02,3.433 -8.58,3.433 -18.89,5.152 -8.56,1.715 -15.43,-1.719 -18.87,-12.023 m -137.29,70.367 c -17.15,-32.613 -66.91,-113.262 -96.08,-137.285 -29.2,-22.309 -109.84,-75.5 -175.06,-82.371 -63.48,-5.145 -212.78,-6.86 -229.96,-8.586 -17.14,-1.711 -15.43,-8.578 -20.57,-18.875 -5.16,-10.289 -8.58,-90.953 3.43,-99.524 13.73,-6.871 49.77,-18.882 49.77,-13.742 -1.73,5.164 -22.32,27.473 -29.19,37.758 -5.15,10.301 -5.15,10.301 -5.15,10.301 0,0 37.76,39.476 53.21,48.058 15.44,8.567 39.46,12.004 48.05,6.86 8.58,-5.157 42.89,-34.325 48.05,-37.75 3.42,-3.438 84.09,56.625 94.38,58.336 8.57,1.726 15.45,1.726 24.03,-12.008 8.57,-15.438 24.01,-30.891 27.44,-29.18 3.44,1.727 61.8,48.055 63.51,42.914 0,-5.164 32.61,-48.058 37.75,-44.625 3.43,3.438 15.45,12.016 15.45,12.016 0,0 -39.48,46.332 -36.05,54.918 1.71,6.859 94.39,70.351 118.41,113.258 25.75,41.183 36.04,80.652 42.91,80.652 6.85,0 13.72,-20.598 15.44,-51.492 1.72,-29.16 -5.15,-113.254 -30.89,-156.149 -24.04,-41.187 -41.17,-54.925 -41.17,-60.074 1.71,-3.422 61.76,-78.933 58.32,-92.668 -5.14,-12.004 -53.18,-15.437 -84.08,-15.437 -29.17,0 -80.66,-6.856 -106.4,6.867 -25.73,13.734 -56.63,39.469 -63.48,36.043 -8.59,-5.16 -46.33,-36.043 -61.78,-36.043 -15.46,0 -27.45,-3.434 -25.75,-12.012 0,-8.582 24.04,-13.7304 32.62,-13.7304 8.58,0 439.31,1.7149 439.31,5.1484 0,3.438 -8.58,34.328 -27.47,48.039 -20.59,15.461 -25.74,41.188 -22.3,51.496 5.14,12.004 12.02,6.86 6.85,15.438 -5.14,8.582 -17.14,32.605 3.44,46.332 20.61,13.73 87.51,54.918 75.5,114.976 -10.29,60.067 -8.58,66.934 -5.15,73.797 3.44,6.863 3.44,27.457 -8.57,32.602 -12.02,6.867 -92.66,36.043 -96.1,85.804 -1.71,48.051 8.58,180.188 8.58,190.485 0,10.305 -1.71,68.64 -13.73,58.344 -13.73,-12.016 -22.3,-20.59 -34.3,-15.446 -12.04,3.43 -15.46,10.301 -20.62,8.574 -6.85,-3.414 -10.29,-3.414 -10.29,-8.574 0,-5.144 -1.71,-109.82 -1.71,-154.449 -1.72,-42.887 -5.14,-106.387 -20.6,-138.996 m -8.58,-171.598 c -3.43,-1.726 -54.9,-48.058 -53.19,-54.918 1.71,-5.144 5.15,-12.015 10.29,-6.871 3.43,5.145 44.62,44.621 46.32,53.203 1.74,8.586 -1.7,13.731 -5.13,10.293 -1.72,-5.144 1.71,-1.707 1.71,-1.707 m 48.05,30.883 c -10.29,-46.324 -37.75,-92.672 -66.92,-120.129 -30.89,-27.453 -75.51,-63.496 -84.08,-63.496 -8.59,-1.707 -22.32,13.742 -29.18,25.746 -6.87,12.004 -12.01,12.004 -22.32,6.863 -10.28,-6.863 -27.44,-8.578 -25.73,5.141 1.72,12.016 34.31,37.762 39.48,36.047 3.43,0 29.16,-27.465 29.16,-37.754 0,-10.297 5.15,-13.73 10.29,-10.297 5.17,3.438 75.51,51.477 96.1,85.809 20.59,32.601 24.03,37.75 24.03,53.191 1.72,17.16 5.16,25.75 -3.44,20.594 -6.86,-3.434 -82.37,-73.785 -84.08,-80.656 -1.72,-8.586 8.58,-18.875 6.87,-25.742 -3.43,-6.864 -5.16,1.714 -17.18,5.14 -11.99,3.438 -22.3,12.016 -20.57,22.324 0,10.293 46.33,42.899 58.33,54.911 12.01,12.007 53.2,56.636 66.94,80.648 13.72,25.746 15.43,30.894 17.16,27.465 1.7,-3.434 5.14,-80.66 3.43,-87.524 -1.73,-6.855 1.71,1.719 1.71,1.719 M 1546.26,208.777 c 3.44,-3.441 30.9,-37.761 39.48,-37.761 8.58,-1.707 34.31,15.445 39.46,18.875 5.16,3.437 13.74,0 17.17,-5.145 3.42,-5.144 12.01,-12.004 5.15,-15.437 -6.87,-1.719 -63.51,-8.582 -94.39,5.144 -30.88,13.731 -25.73,18.875 -22.31,22.309 3.43,3.437 13.73,13.73 15.44,12.015 m -164.72,6.86 c 13.71,8.582 60.05,46.332 65.19,44.621 5.15,-3.434 66.94,-66.93 75.52,-78.934 6.85,-13.734 29.18,-24.023 51.47,-25.75 22.33,0 94.39,0 94.39,6.871 -1.72,8.571 -13.73,24.016 -15.45,29.172 0,6.871 5.15,17.16 10.29,13.719 5.16,-1.703 49.78,-56.633 53.22,-65.199 3.42,-8.582 1.71,-8.582 -1.73,-8.582 -3.43,0 -145.85,-6.867 -161.31,-1.727 -15.45,3.438 -51.47,37.762 -72.07,56.633 -20.59,18.875 -24.02,27.469 -29.18,36.035 -5.15,6.871 -12,3.438 -17.14,-1.707 -5.17,-3.434 -37.78,-22.301 -49.77,-22.301 -10.31,0 -17.18,8.571 -3.43,17.149 m 61.75,-5.145 c -3.41,0 -54.9,-30.89 -54.9,-36.039 1.72,-3.437 10.3,-6.863 17.15,-5.144 6.87,3.433 48.06,25.746 46.34,29.179 0,1.711 -5.15,13.715 -8.59,12.004 m -96.08,-63.496 c 6.86,-3.433 32.6,-22.308 29.17,-22.308 -3.44,0 -39.47,12.007 -46.34,13.726 -6.87,0 12.01,10.289 17.17,8.582 m -84.09,48.059 c 1.73,3.433 18.86,13.722 29.17,6.863 10.3,-8.59 20.6,-12.027 13.75,-17.172 -6.88,-3.422 -30.91,-12.004 -36.05,-6.859 -6.87,3.437 -6.87,15.441 -6.87,17.168 m -1.71,42.894 c -6.87,-5.144 -42.91,-39.461 -42.91,-44.621 -1.71,-6.867 22.3,-41.187 36.04,-46.332 12.01,-5.144 36.03,-5.144 44.62,-3.433 8.58,0 18.87,1.722 18.87,6.863 0,5.148 -5.14,13.738 -11.99,13.738 -6.88,0 -27.47,-6.863 -39.49,1.707 -12.01,8.582 -25.75,20.59 -24.02,27.457 3.43,6.871 37.75,29.168 44.62,24.027 6.85,-3.425 75.5,-70.359 85.79,-77.218 8.6,-6.871 46.35,-12.016 65.21,3.426 20.6,13.738 24.03,17.164 25.76,20.601 0,3.426 -12.03,15.438 -17.18,13.723 -3.44,-3.434 -24.01,-25.746 -36.04,-24.02 -12,0 -48.04,22.309 -61.76,37.75 -12.02,15.442 -46.34,49.766 -63.51,49.766 -17.14,0 -17.14,0 -24.01,-3.434 m 300.3,1518.721 c -1.71,-8.58 -82.37,-434.17 -175.03,-710.46 -94.39,-276.272 -108.11,-356.94 -132.14,-533.694 -22.3,-176.754 -17.16,-211.071 -6.87,-211.071 8.58,0 156.17,-3.429 157.87,10.301 1.71,15.445 1.71,288.285 39.48,447.887 37.76,157.883 138.99,533.707 154.46,634.947 13.7,101.24 44.61,372.38 44.61,410.15 0,37.75 -5.15,46.33 -18.89,32.59 -13.72,-13.73 -61.76,-70.36 -63.49,-80.65 M 763.738,97.2305 c 5.16,22.3085 8.594,39.4645 5.16,41.1835 -3.433,0 -10.304,-17.156 -15.449,-37.75 -6.871,-22.2968 -8.578,-41.1835 -5.168,-41.1835 3.442,0 10.313,15.4453 15.457,37.75 m 290.032,104.6875 3.41,-73.797 c 0,0 12.02,5.145 48.06,-5.144 36.05,-10.297 65.22,-25.7465 87.52,-24.0278 22.3,1.7148 44.62,22.3088 29.17,29.1718 -15.45,6.871 -168.16,82.371 -168.16,73.797 m -87.536,63.484 c -6.871,-5.144 -142.429,-130.41 -133.847,-132.136 10.285,-1.711 32.605,3.429 46.328,-6.856 13.742,-12.019 99.535,-22.308 125.265,0 25.76,20.586 24.04,25.731 25.76,41.18 1.71,17.156 3.42,77.23 -8.58,85.797 -13.74,10.301 -48.062,18.879 -54.926,12.015 M 832.387,425.008 c 0,-8.578 -56.621,-149.309 -66.922,-193.93 -10.313,-44.617 -18.887,-46.332 -5.145,-54.902 12.012,-8.586 24.008,-27.473 32.59,-20.602 8.59,6.871 181.922,144.145 185.34,159.602 3.434,15.441 -17.16,29.164 -22.305,36.023 -5.164,8.598 -17.156,18.887 -41.187,24.043 -24.028,5.141 -82.371,49.766 -82.371,49.766 m 72.066,-25.75 c -18.867,10.301 -34.316,15.445 -34.316,13.73 -1.711,-1.715 12.015,-12.015 30.898,-20.601 18.867,-10.297 34.317,-17.145 34.317,-13.715 1.73,1.711 -12.02,10.289 -30.899,20.586 m 29.192,257.41 c 0,0 63.468,-18.875 65.195,-29.168 1.71,-10.301 -8.582,-108.113 -32.606,-163.031 -22.304,-56.633 -15.453,-65.211 -42.902,-53.196 -27.441,10.301 -70.355,30.879 -82.367,46.332 -12.016,13.723 -5.145,22.301 -22.305,32.606 -18.887,12.004 -39.476,34.32 -42.894,51.484 -3.434,17.149 5.144,56.629 5.144,56.629 0,0 78.938,18.875 113.254,37.75 32.609,17.16 39.481,20.594 39.481,20.594 m 89.225,60.062 c -8.58,-3.429 -58.347,-37.75 -54.909,-42.898 3.43,-5.141 34.309,-13.73 41.179,-6.867 6.88,6.867 22.31,53.191 13.73,49.765 M 784.328,629.207 c 18.883,5.152 29.188,0 66.938,15.445 37.757,15.45 42.898,18.875 53.187,24.039 10.305,3.418 10.305,-5.164 0,-10.308 -10.289,-5.149 -80.648,-41.184 -101.242,-41.184 -22.301,0 -37.746,6.871 -18.883,12.008 m 30.902,90.949 c 5.141,-1.711 56.614,-37.754 68.629,-39.461 12.032,-1.715 1.727,-10.297 -6.851,-13.73 -10.305,-3.438 -82.375,-29.172 -84.098,-22.313 -1.711,5.164 -1.711,32.606 6.863,39.477 8.586,6.855 8.586,6.855 3.438,15.441 -6.871,8.582 5.148,20.586 12.019,20.586 m 190.48,29.18 c -20.589,3.437 -108.112,-20.602 -120.124,-27.457 -12.016,-6.867 6.871,-10.293 17.156,-17.164 10.289,-5.145 22.305,-15.445 30.903,-8.574 10.285,6.863 92.655,51.484 72.065,53.195 m -169.89,8.578 c 17.157,6.863 135.571,10.297 132.141,5.152 -1.727,-5.152 -85.809,-30.878 -102.969,-29.168 -18.887,1.707 -48.035,18.875 -29.172,24.016 m 85.793,25.75 c 3.434,1.715 109.837,18.867 116.687,15.434 6.87,-3.43 18.88,-10.285 6.87,-17.157 -12.01,-6.859 -123.557,-6.859 -123.557,-3.421 -1.711,5.144 -3.422,5.144 0,5.144 M 561.254,1337.95 v -3.44 c 0,0 -82.371,96.1 -87.535,106.4 -6.852,12.02 -15.449,41.19 -27.442,65.2 -10.308,24.03 -6.871,29.19 -12.015,24.03 -5.145,-3.42 -37.75,-94.38 -25.742,-164.73 13.726,-72.07 39.464,-175.04 90.937,-229.95 51.492,-56.64 66.941,-58.35 58.363,-61.78 -10.308,-3.44 -54.929,10.3 -89.242,56.62 -36.043,44.61 -53.203,70.36 -58.348,66.93 -3.437,-3.43 56.637,-82.37 75.524,-97.82 18.863,-15.43 75.5,-51.48 99.508,-54.92 24.031,-5.14 77.234,-24.02 96.117,-30.89 18.867,-5.14 120.121,-56.623 116.687,-63.483 -5.156,-6.871 -30.894,1.715 -37.746,5.156 -5.168,1.704 -8.597,3.418 -8.597,-5.156 0,-6.871 17.175,-51.476 27.461,-53.203 10.289,0 89.242,-8.578 120.125,-5.144 30.902,3.437 104.671,5.144 106.401,-6.872 3.43,-12.003 -78.937,-42.894 -101.257,-44.609 -24.012,0 -41.164,6.859 -36.027,8.574 5.144,1.719 96.097,18.879 101.238,25.742 3.434,6.872 0,6.872 -5.141,6.872 -5.16,-1.719 -133.863,1.714 -137.281,-5.145 -5.144,-6.871 -36.043,-77.234 -24.031,-85.809 13.746,-6.859 149.297,17.168 180.199,17.168 29.17,1.707 60.05,3.414 66.92,12.012 8.58,8.57 13.72,41.18 12.02,53.192 -1.73,13.722 -12.02,24.019 -8.58,30.89 1.71,6.86 18.86,68.629 18.86,84.082 0,17.163 0,24.033 -18.86,32.603 -18.88,6.87 -104.696,90.96 -221.383,151.02 -118.414,60.06 -226.512,108.11 -260.844,130.42 -32.605,22.31 -87.516,68.64 -94.387,78.94 -8.578,10.29 -3.437,17.16 0,15.45 3.43,-3.44 80.664,-70.37 82.371,-65.22 1.727,6.87 3.438,3.43 1.727,6.87 m 178.469,315.75 c 13.726,0 94.371,-13.72 113.254,-12.01 18.867,3.44 13.726,3.44 10.312,-6.87 -1.734,-8.58 -32.629,-25.73 -60.078,-17.15 -27.445,10.3 -37.746,-3.44 -46.332,-15.44 -8.598,-10.3 -30.895,49.76 -17.156,51.47 m -10.305,53.19 c 13.723,0 24.031,8.59 30.902,12.03 6.852,5.15 20.59,-3.44 6.852,-13.74 -13.723,-10.3 -39.461,-27.45 -42.899,-20.59 -1.71,5.15 -10.3,22.3 5.145,22.3 m -13.719,-257.4 c -6.871,15.44 -15.453,25.74 -18.886,24.02 -1.711,-1.71 1.726,-13.72 8.578,-29.17 6.871,-13.73 15.449,-24.02 18.882,-22.3 1.711,1.7 -1.71,13.72 -8.574,27.45 m -80.664,327.77 c -1.715,1.72 -128.707,-1.71 -128.707,-5.15 0,-3.43 -1.711,-12 -8.578,-18.87 -6.852,-6.87 -10.293,-10.3 -6.852,-13.74 3.418,-3.43 8.559,0 5.145,-8.57 -1.727,-6.86 0,-6.86 -5.145,-5.16 -5.144,1.73 -8.585,-1.7 -12.015,-8.58 -1.727,-8.58 0,-20.58 5.144,-25.74 5.145,-3.43 -3.441,-6.86 -8.582,-6.86 -3.433,0 -8.578,0 -8.578,-6.86 0,-6.87 8.578,-18.87 3.434,-20.6 -5.16,-1.71 -8.594,1.73 -10.305,-6.86 -1.726,-8.58 -10.285,-32.6 -5.144,-36.04 6.855,-3.43 12.015,-1.72 6.855,-6.87 -5.148,-5.13 -11.996,1.73 -15.43,-13.73 -3.437,-15.43 -15.453,-41.18 8.575,-70.34 24.031,-27.47 80.652,-116.7 92.66,-133.86 12.015,-15.44 54.929,-84.08 72.09,-89.25 15.433,-3.42 116.687,-61.77 116.687,-56.62 1.711,3.43 -80.664,92.67 -113.273,121.85 -30.883,27.45 -102.95,89.22 -104.672,102.95 -3.438,13.74 -3.438,15.46 3.433,8.59 5.161,-5.15 114.981,-111.54 135.575,-125.27 20.589,-15.45 82.371,-80.65 97.8,-102.97 15.453,-20.6 29.176,-32.61 30.903,-30.88 1.707,3.42 -41.184,113.25 -66.922,164.73 -27.465,51.49 -41.192,73.8 -36.047,73.8 5.144,0 46.332,-63.5 73.793,-126.99 27.449,-63.5 51.48,-125.27 54.91,-127 1.727,0 5.168,1.73 6.871,5.15 1.711,3.44 -3.43,73.8 -10.301,85.82 -8.586,13.71 -13.726,29.16 -12.019,39.46 3.433,12 22.32,66.92 25.758,84.08 3.418,15.46 10.289,54.92 3.418,63.5 -8.559,8.58 -51.477,25.73 -77.235,97.82 -27.441,72.07 -29.148,73.79 -29.148,73.79 0,0 -18.887,-1.72 -22.32,6.87 -1.711,8.57 0,8.57 6.871,13.71 6.851,5.16 6.851,3.43 8.578,6.88 0,3.43 -6.871,17.16 -6.871,17.16 0,0 -42.895,-5.16 -48.039,-8.59 -3.434,-3.43 -12.016,-1.7 -10.305,6.86 0,6.87 17.16,24.04 8.578,20.6 -10.289,-1.72 -73.797,-17.16 -77.215,-15.43 -5.14,3.42 -8.574,15.43 1.715,20.58 10.289,5.14 56.633,56.63 54.91,56.63 m -152.722,1.72 c -18.883,0 -80.661,18.88 -73.793,27.46 6.855,8.58 54.91,3.44 58.347,12 3.434,10.3 -42.914,25.74 -56.637,36.04 -13.718,10.29 1.708,17.16 27.465,25.75 25.735,8.58 25.735,18.88 5.145,18.88 -22.32,0 -49.766,3.41 -53.199,-10.3 -3.438,-13.74 -5.145,-27.45 -13.743,-70.37 -6.855,-44.61 -63.468,-238.53 -92.644,-298.58 -29.188,-60.07 -41.188,-125.28 -41.188,-168.18 0,-42.9 10.289,-489.078 3.418,-552.582 -5.144,-61.77 -15.429,-171.598 -8.562,-228.223 5.144,-56.645 15.433,-54.93 17.144,-44.625 0,8.586 10.305,72.074 41.184,73.781 30.898,0 39.477,-17.148 51.496,-10.289 13.719,6.863 37.75,32.602 37.75,49.766 1.707,18.875 -6.871,-6.863 -6.871,207.64 0,214.512 -12,473.642 8.578,564.592 18.883,90.94 49.766,157.88 49.766,171.61 0,12.01 1.726,15.44 -3.434,17.15 -3.418,1.73 -6.855,10.3 0,12.01 6.871,1.72 13.742,1.72 15.449,17.17 0,15.45 5.141,30.89 1.727,32.61 -3.434,0 -6.871,0 -6.871,3.43 0,5.14 1.726,5.14 6.871,5.14 5.141,0 3.414,0 6.848,5.14 3.437,5.16 6.871,10.32 1.711,13.74 -5.145,3.44 -6.852,8.58 -5.145,8.58 1.727,0 8.582,-3.44 10.305,1.73 3.437,6.84 12.015,30.88 10.289,32.59 -1.707,1.72 -1.707,8.58 3.437,10.3 5.157,3.43 17.16,24.02 18.887,27.46 0,5.15 3.414,8.58 -13.73,8.58 m 746.487,-22.31 c -6.87,-13.73 -5.14,-17.17 1.71,-20.6 6.87,-1.71 176.74,-89.23 178.47,-85.8 1.71,1.72 10.31,12.02 1.71,17.16 8.6,-5.14 -175.03,102.97 -181.89,89.24 m 36.05,44.61 c 1.7,-3.42 8.57,-42.9 18.86,-41.17 12.01,0 48.04,8.57 53.2,10.29 5.14,0 8.58,-10.29 12.02,-17.16 3.43,-8.59 18.86,-29.17 32.61,-24.03 15.42,5.15 36.02,17.16 44.6,20.59 6.86,3.44 8.6,-5.15 8.6,-8.58 0,-3.42 -13.74,-56.63 -22.33,-54.9 -6.87,0 -166.45,73.79 -168.18,78.93 -3.43,5.15 20.62,39.48 20.62,36.03 m 197.33,12.02 c -3.43,-1.72 -56.64,-48.05 -73.79,-44.62 -15.45,3.43 -20.6,8.58 -20.6,-3.43 0,-10.3 -1.7,-29.18 12.02,-25.75 13.74,5.15 63.48,34.33 73.79,48.05 10.31,15.45 12.02,27.47 8.58,25.75 m -46.33,32.6 c -8.6,-1.72 3.44,-32.6 -13.74,-42.9 -18.86,-8.58 -10.29,-15.45 -6.86,-15.45 5.15,0 36.05,12.02 36.05,24.03 0,12.01 -5.16,36.05 -15.45,34.32 m -94.39,3.43 c -6.85,0 -20.59,-3.43 -20.59,-8.58 0,-6.87 -3.44,-32.6 8.59,-30.87 12,1.7 24.02,1.7 24.02,10.28 0,6.86 -3.44,29.17 -12.02,29.17 m 17.16,44.62 c -3.43,-3.43 -10.29,-32.59 1.73,-29.18 12.01,5.16 24.01,6.87 24.01,13.73 1.73,6.88 3.43,17.18 -6.86,20.61 -10.29,3.41 -15.45,0 -18.88,-5.16 m -22.3,0 -24.03,-37.75 c 0,0 22.32,-3.43 27.46,6.87 5.15,12 10.29,41.18 -3.43,30.88 m -32.61,-68.64 c 6.86,-6.87 12.01,-29.18 32.61,-27.45 22.3,1.71 65.22,27.45 65.22,32.59 0,3.43 15.42,-1.71 15.42,-8.57 -1.71,-5.15 -90.92,-54.92 -101.24,-53.2 -10.3,1.72 -18.88,39.47 -20.59,48.05 -1.71,8.58 1.71,17.15 8.58,8.58 m 60.07,25.75 c 3.43,5.14 96.1,44.62 102.95,29.17 8.58,-15.46 13.74,-54.92 1.71,-48.05 -11.99,5.14 -15.44,13.72 -15.44,18.88 0,5.14 3.45,10.3 -8.57,10.3 -12.02,0 -65.21,-22.32 -68.63,-29.18 -1.73,-5.16 -15.45,13.72 -12.02,18.88 m -12.03,58.33 c 1.73,3.44 24.05,42.91 42.91,25.75 18.89,-15.45 15.45,-32.62 10.31,-36.03 -3.43,-3.43 -10.31,-1.73 -15.47,5.14 -5.14,5.14 -17.14,12 -25.72,5.14 -10.3,-6.87 -12.03,-1.7 -12.03,0 m 60.07,39.48 c 0,-10.3 20.59,-60.06 29.18,-54.92 10.3,5.16 36.04,3.43 39.47,-5.14 3.44,-10.31 8.58,-54.93 17.16,-51.49 6.85,3.43 22.3,44.62 22.3,53.2 0,6.86 -106.38,66.93 -108.11,58.35 m -32.6,3.43 c 1.73,5.15 10.28,8.58 18.88,6.85 6.87,-3.41 10.29,-5.14 1.71,-6.85 -6.87,0 -20.59,-5.16 -20.59,0 m 25.75,41.18 c -3.43,-3.43 -15.47,-17.15 -10.31,-20.59 5.15,-3.43 132.14,-73.78 135.58,-68.64 3.43,5.14 13.72,22.31 5.14,25.75 -6.87,3.42 -125.27,66.91 -130.41,63.48 m -211.09,-475.35 c 1.72,34.32 1.72,63.5 0,63.5 -1.72,0 -5.15,-29.18 -6.86,-63.5 -1.72,-34.31 -1.72,-61.77 0,-61.77 1.71,-1.73 5.14,27.46 6.86,61.77 m 97.82,29.17 c 1.72,-6.86 10.28,-49.76 -15.45,-92.67 -27.45,-44.6 -54.91,-82.37 -49.77,-78.93 6.88,1.71 85.81,78.93 80.67,123.55 -5.17,46.34 -17.16,53.2 -15.45,48.05 m -298.602,312.33 c -1.707,-10.3 -29.168,-274.57 1.734,-377.53 29.148,-104.69 73.778,-175.05 92.658,-176.75 18.87,-3.44 48.04,15.44 56.62,22.31 6.87,6.85 8.59,12 17.18,10.29 10.28,0 130.41,25.73 171.6,90.96 39.47,63.48 85.8,204.2 82.36,209.35 -3.43,5.15 -175.03,87.51 -175.03,87.51 0,0 -32.6,-78.93 -30.9,-84.08 3.44,-3.43 46.34,-94.39 32.61,-159.59 -13.72,-63.5 -20.59,-65.22 -22.32,-58.36 -1.71,8.6 17.18,65.22 5.16,123.56 -12.01,56.64 -15.45,51.49 -15.45,41.19 0,-10.29 -5.14,-147.58 -18.86,-156.15 -13.74,-8.6 -13.74,5.14 -13.74,13.72 0,10.3 10.3,94.38 3.43,96.1 -6.87,0 -41.19,-92.67 -49.76,-92.67 -8.59,0 -6.85,6.87 -3.42,15.44 3.42,10.3 116.69,338.07 113.25,343.22 -1.72,3.43 -15.45,12.01 -24.02,5.15 -8.58,-5.15 -5.15,-12.02 -12.02,-8.57 -5.14,5.15 -18.88,15.43 -27.46,8.57 -10.29,-8.57 -10.29,-13.73 -13.73,-10.3 -3.43,3.44 -15.45,25.74 -25.73,13.73 -8.58,-10.29 -13.72,-3.43 -15.46,1.71 -3.43,5.15 -24.02,24.04 -30.88,17.17 -5.14,-8.59 -13.74,-18.88 -15.44,-8.59 0,10.3 1.7,12.02 -5.15,13.73 -5.16,3.43 -20.59,12.02 -24.03,5.15 -3.43,-6.86 -5.14,3.43 -10.28,5.16 -5.16,0 -8.6,1.71 -12.04,-5.16 -1.71,-8.58 -5.14,0 -8.574,5.16 -5.148,6.86 -22.308,17.15 -22.308,8.57 m 317.472,561.15 c -13.73,-15.44 -126.98,-44.62 -147.58,-54.91 -18.88,-12.02 -30.88,-20.59 -36.02,-17.16 -3.43,3.43 -10.31,3.43 3.42,13.73 12.01,8.58 30.9,37.76 41.18,46.33 12.02,8.58 12.02,13.74 -3.43,10.3 -17.16,-5.16 -37.75,-25.74 -58.35,-53.2 -20.59,-27.46 -70.36,-118.41 -78.93,-169.9 -6.88,-53.19 -12.02,-73.78 -10.31,-77.22 3.43,-1.71 20.61,18.89 24.05,27.46 5.14,10.3 18.86,66.93 34.31,94.39 13.72,29.17 22.3,36.04 20.57,24.03 -1.7,-13.74 -75.5,-228.25 -72.06,-240.25 5.16,-12.01 6.87,-22.32 1.72,-27.47 -5.16,-5.14 -39.476,-89.22 -37.749,-108.1 1.707,-18.88 6.859,-20.6 12.019,-20.6 6.848,1.72 13.703,13.73 17.14,5.15 1.72,-8.59 0,-10.29 12.03,-12 13.72,-1.73 20.58,-1.73 20.58,3.41 0,5.16 5.14,10.3 6.87,3.44 0,-6.85 -10.29,-6.85 0,-12.01 12.01,-3.43 22.32,-12.02 24.02,-6.87 3.44,5.15 13.73,12.03 13.73,5.15 1.7,-5.15 0,-12 6.87,-15.44 6.87,-1.72 17.15,-8.59 17.15,-3.43 0,5.14 5.17,8.57 10.31,1.71 5.15,-6.87 13.72,-8.58 17.16,-8.58 3.43,1.71 -1.73,10.3 8.58,5.14 10.29,-3.43 10.29,-6.86 20.58,-8.57 10.3,0 18.88,0 18.88,3.43 0,5.14 3.44,12.01 8.6,5.14 5.14,-8.57 8.56,-10.29 15.43,-10.29 8.58,1.72 15.45,1.72 13.72,6.86 -3.43,6.87 5.16,10.3 8.6,5.16 3.43,-5.16 8.58,-6.87 10.29,-1.73 0,6.87 51.47,127 49.76,130.43 0,5.15 -1.73,3.44 -12.01,-8.57 -8.58,-13.74 -51.48,-48.05 -60.07,-42.91 -10.29,3.42 -6.86,8.57 3.43,13.73 8.6,5.15 78.94,97.82 113.27,139.01 32.62,42.89 75.51,120.12 60.06,202.49 -15.45,80.65 -30.89,116.69 -41.18,133.85 -10.3,17.16 -8.59,22.31 -13.73,8.58 -3.44,-12.02 -37.76,-34.33 -39.48,-29.17 0,5.15 10.3,53.2 -3.43,39.46 M 955.945,2151.37 c -5.164,25.73 -12.015,46.32 -13.722,46.32 -1.727,-1.72 1.707,-22.3 6.851,-48.05 5.145,-25.74 12.016,-46.32 13.723,-46.32 1.726,1.7 0,22.31 -6.852,48.05 M 954.219,2347 c -5.145,-20.61 -29.172,-96.11 -24.008,-159.6 5.141,-63.5 41.18,-132.13 49.758,-130.42 6.859,1.72 5.152,49.77 5.152,63.49 0,15.44 25.739,133.86 49.769,180.19 24.02,46.34 66.91,99.54 66.91,104.68 0,6.86 -15.44,5.15 -44.62,-5.14 -29.16,-8.59 -99.528,-32.62 -102.961,-53.2 m -37.754,-30.9 c -10.285,-12.01 -54.91,-66.93 -56.617,-108.1 0,-41.19 1.707,-89.25 22.304,-130.43 20.59,-41.19 24.028,-51.49 22.301,-68.64 -3.418,-17.16 -25.738,-42.91 -17.156,-42.91 10.301,0 42.914,3.44 54.926,6.87 11.996,3.44 18.867,8.58 25.738,6.86 6.871,0 8.574,0 8.574,5.15 1.715,3.43 8.586,20.6 6.875,25.74 -1.726,5.15 -48.058,72.07 -56.637,123.56 -8.582,51.49 -15.449,135.57 -15.449,159.59 0,24.03 5.141,22.31 5.141,22.31 m 574.885,-214.5 c 0,0 -34.31,5.15 -44.62,-10.29 -8.58,-13.74 -53.18,-77.23 -46.33,-82.38 6.85,-5.15 120.13,-70.36 121.85,-65.22 1.71,5.16 18.87,36.04 27.45,36.04 8.6,0 5.16,-5.14 5.16,-15.44 -1.73,-10.3 1.71,-24.03 25.73,-27.45 24.04,-1.72 75.51,1.71 92.67,12.01 17.16,8.58 25.74,17.15 34.31,10.28 6.87,-8.57 44.63,-15.44 63.51,-17.15 17.15,-3.43 29.17,-3.43 25.74,-12 -5.15,-8.6 -58.35,-20.61 -58.35,-30.89 0,-10.3 -1.73,-77.23 -8.58,-68.66 -6.87,6.87 -3.43,39.48 -6.87,49.78 -1.71,8.58 -32.6,17.15 -39.46,29.16 -6.87,13.74 -12.01,18.88 -12.01,8.59 0,-8.59 -1.73,-42.91 6.87,-56.62 6.85,-13.73 34.31,-51.48 42.89,-53.21 6.86,-1.71 37.76,20.59 80.65,82.37 42.91,61.78 48.06,60.06 42.91,72.07 -5.16,13.74 -5.16,34.32 -15.44,29.18 -10.31,-3.44 -46.36,-3.44 -65.22,15.44 -20.6,18.87 -12.01,30.9 -18.88,27.45 -8.59,-5.14 -30.89,-48.04 -60.06,-36.03 -29.17,12.01 -29.17,32.61 -46.33,30.89 -17.17,-3.44 -34.31,3.43 -41.19,10.29 -6.87,6.87 -8.57,17.17 -17.16,5.15 -8.59,-12.01 -36.04,-27.44 -60.06,-6.85 -25.74,20.59 -29.18,42.89 -29.18,49.76 0,8.58 1.71,15.45 0,13.73 m 295.16,-49.77 c 1.72,1.72 25.76,3.44 34.32,-6.87 6.87,-12.01 10.3,-13.72 3.43,-13.72 -6.85,0 -22.3,10.28 -30.88,12.01 -8.58,1.71 -10.31,8.58 -6.87,8.58 m 10.31,49.77 c -3.44,-5.15 -32.61,-30.9 -30.89,-56.64 1.71,-25.73 10.29,-32.59 22.3,-34.32 12.02,-1.71 32.6,-1.71 36.03,0 3.44,3.44 8.6,6.88 -1.71,6.88 -8.58,1.71 -13.72,0 -17.16,5.14 -3.43,5.15 -5.14,6.86 -15.44,6.86 -10.31,0 -18.87,8.59 -15.45,17.16 3.43,10.3 12.01,20.59 20.61,20.59 8.58,-1.7 36.02,-10.29 37.75,-8.57 1.71,3.43 5.14,13.73 0,20.59 -5.16,5.15 -24.03,17.16 -29.17,18.87 -5.17,1.72 -6.87,3.44 -6.87,3.44 m -127,-37.76 c -6.87,-1.71 -22.3,-13.72 -18.88,-18.88 1.72,-6.85 13.74,-27.44 17.17,-25.73 5.15,3.43 24.02,13.72 22.31,24.02 -1.72,8.58 -15.44,24.02 -20.6,20.59 m -48.05,37.76 c -13.73,-5.15 -29.16,-17.16 -24.02,-29.17 5.15,-13.73 13.73,-25.75 20.59,-24.04 6.86,3.44 24.03,24.04 24.03,30.9 0,8.58 -6.87,27.46 -20.6,22.31 m -101.24,-34.33 c 0,12.02 12.01,34.33 25.73,32.61 13.74,-3.43 20.6,-8.57 20.6,-18.88 1.73,-10.3 -3.42,-37.75 -10.29,-37.75 -5.14,0 -37.76,13.73 -36.04,24.02 m 233.4,73.8 c -17.19,-6.87 -77.24,-53.2 -72.09,-61.78 5.14,-6.86 27.46,-20.59 24.03,-34.33 -3.44,-13.72 -18.89,-27.44 -12.02,-27.44 5.15,0 70.36,58.34 72.08,66.92 1.71,8.58 15.44,18.88 20.58,22.31 5.16,3.44 -15.43,39.46 -32.58,34.32 m -65.23,56.62 c -8.57,-1.72 -92.65,-84.08 -80.66,-87.5 10.3,-3.44 20.59,6.85 27.46,0 6.87,-6.87 15.44,-18.88 13.73,-32.62 -1.71,-13.73 -3.44,-18.87 -1.71,-13.73 1.71,3.43 85.79,89.24 92.66,90.95 6.87,1.72 0,12.02 -12.01,22.31 -12,10.3 -30.88,24.03 -39.47,20.59 m -85.8,27.46 c -10.29,-12.01 -92.66,-114.96 -96.1,-128.7 -3.43,-13.74 -5.14,-22.31 1.71,-15.45 6.87,5.14 24.03,37.75 34.33,37.75 10.29,0 30.88,-5.14 32.59,-18.87 0,-15.44 -5.14,-48.05 0,-46.33 5.16,1.72 12.02,0 8.58,10.29 -3.42,12.02 -5.13,24.03 5.17,39.48 10.3,15.43 63.48,82.37 66.92,89.22 1.71,6.87 -10.31,29.18 -24.03,34.34 -12.02,3.42 -20.59,8.57 -29.17,-1.73 m 362.1,123.56 c -5.17,-5.14 -12.02,-29.18 -10.3,-61.77 3.43,-30.9 -6.88,-60.06 -5.15,-78.94 3.43,-20.6 17.15,-82.37 22.3,-73.8 3.44,8.58 32.61,109.82 15.45,152.74 -17.16,42.89 -17.16,66.91 -22.3,61.77 m -284.87,-22.32 c -8.58,39.48 -15.45,70.38 -18.89,70.38 -1.7,0 1.71,-32.61 8.58,-72.08 6.87,-39.48 15.45,-72.07 18.88,-70.36 1.72,0 -1.72,32.61 -8.57,72.06 m -113.27,418.72 c 25.75,-6.85 303.75,-58.33 293.44,-70.34 -10.28,-12.01 -118.41,-77.24 -142.42,-156.17 -24.03,-78.94 -32.61,-108.11 -27.46,-133.85 6.87,-27.46 13.72,-36.04 15.45,-27.46 1.7,8.58 -5.16,68.64 5.14,94.37 10.3,25.75 10.3,27.48 17.16,22.32 8.57,-5.14 48.05,-13.72 80.66,6.86 32.61,18.88 48.04,32.61 46.33,22.32 0,-10.3 -13.72,-22.32 -12.02,-41.19 1.73,-18.88 5.17,-15.45 0,-27.45 -5.14,-12.01 -39.45,-77.23 -48.03,-72.08 -8.6,6.86 -6.88,30.89 -3.44,53.2 3.44,24.02 12.02,49.77 12.02,49.77 0,0 -12.02,0 -13.74,-17.16 -3.44,-17.17 -18.87,-63.5 -15.45,-85.81 5.14,-20.59 12.01,-25.74 5.14,-39.47 -6.85,-12.02 -27.44,-58.34 -25.71,-89.24 3.43,-32.6 8.57,-54.9 13.71,-46.33 3.44,8.57 1.71,39.48 5.15,65.22 1.71,27.45 22.32,84.08 48.04,116.68 25.75,32.61 20.61,46.34 30.9,48.05 10.29,3.43 13.72,-1.71 20.59,-5.15 6.87,-5.15 17.16,-8.57 22.3,-25.73 3.43,-17.17 1.73,-101.26 -10.29,-127 -12.01,-25.74 -20.59,-49.77 -22.31,-65.2 -1.72,-15.44 -6.86,-60.07 -6.86,-75.52 1.71,-15.43 10.29,-22.3 12.02,-18.87 1.71,5.14 0,29.18 3.43,44.62 1.71,17.16 17.16,63.5 34.32,89.23 15.45,24.03 24.03,41.18 24.03,24.03 0,-17.16 18.86,-135.57 30.87,-176.76 12.02,-41.19 51.5,-240.25 18.89,-327.76 -30.9,-85.81 -48.06,-118.42 -60.07,-128.7 -12.01,-10.31 -24.03,-3.44 -22.3,-17.18 0,-15.43 -12.02,-65.2 -22.3,-96.09 -10.31,-29.17 -25.74,-24.03 -22.32,-15.45 3.43,6.86 8.57,36.04 12.01,49.77 5.15,15.45 8.58,37.76 -1.72,29.17 -10.29,-10.29 -85.8,-101.25 -90.94,-128.7 -6.87,-27.46 -12.01,-51.48 -6.87,-73.8 5.14,-22.29 -3.44,-22.29 -12.01,-12 -8.59,8.58 -37.76,53.2 -30.89,132.13 8.58,77.23 56.62,156.16 78.94,211.08 22.3,56.64 44.62,94.39 46.33,111.55 1.73,15.43 -8.58,24.02 -12.01,17.16 -1.71,-6.87 -34.32,-66.93 -46.34,-72.07 -13.73,-3.44 -13.73,10.29 -5.16,18.87 8.6,8.57 24.05,39.46 25.76,51.47 0,12.03 1.71,15.45 8.58,27.47 5.14,12.01 58.35,85.79 56.64,102.96 0,18.87 -15.45,41.18 -15.45,63.5 0,24.01 12.01,41.19 6.85,48.05 -5.15,8.57 -25.74,44.61 -42.9,49.76 -18.86,3.44 -46.33,44.62 -53.2,53.2 -8.58,8.58 -48.04,56.63 -68.64,48.04 -20.58,-8.57 -20.58,-10.29 -29.16,-3.41 -6.87,8.56 -13.74,6.86 -18.89,48.04 -6.87,39.47 -12.01,90.95 -12.01,116.69 -1.71,25.74 5.14,39.47 -1.71,36.03 -6.87,-1.71 -17.17,-53.2 -24.03,-85.8 -6.87,-32.59 0,-65.21 -8.57,-73.78 -8.59,-8.58 -42.9,-36.05 -44.63,-41.18 0,-5.16 -10.28,-6.88 -6.85,5.13 3.44,12.01 5.14,108.12 18.86,114.99 13.73,5.14 46.33,51.47 49.77,73.77 5.14,24.04 8.58,32.61 3.44,32.61 -6.88,0 -6.88,-6.86 -22.3,-13.73 -15.45,-8.57 -8.58,12.01 0,20.6 6.85,6.87 13.71,51.49 17.14,72.08 5.16,20.58 6.86,37.75 3.43,29.17 -5.15,-8.59 -27.45,-30.89 -32.59,-39.47 -6.87,-8.58 -10.3,-10.29 -12.02,0 -1.71,10.3 -3.43,10.3 -12,24.03 -6.88,15.44 5.13,44.6 5.13,70.35 0,25.74 -5.13,42.9 0,53.21 5.16,12.01 0,18.88 -5.13,12.01 -5.15,-6.86 -18.89,-30.89 -25.75,-22.32 -6.87,10.31 -3.43,44.62 -12.02,60.07 -6.86,15.44 10.3,37.75 36.04,32.59 m 427.29,-151 c -6.85,1.71 -32.59,-6.87 -32.59,-13.73 -1.73,-6.86 1.71,-29.17 22.3,-30.9 18.89,-1.7 36.05,-5.13 36.05,0 -1.73,5.16 -15.45,6.87 -18.89,24.04 -3.43,15.44 -6.87,20.59 -6.87,20.59 m -238.52,-61.79 c -5.15,-3.43 -37.75,-41.18 -17.16,-46.32 20.6,-3.43 78.94,12.01 97.81,24.03 18.88,13.72 49.78,13.72 65.21,5.14 13.72,-10.29 44.62,-30.89 41.19,-39.47 -5.14,-10.29 -6.87,-8.58 -12.02,-3.43 -5.14,5.14 -36.04,42.9 -53.2,25.74 -15.44,-15.44 -32.59,-39.47 -10.28,-51.49 24.02,-12 108.11,-54.91 128.7,-48.05 18.88,6.87 37.75,25.75 27.45,36.05 -10.29,10.28 -32.6,17.14 -46.33,48.05 -12,30.88 -25.74,75.51 -27.45,82.36 -3.44,6.87 -3.44,6.87 -8.6,3.43 -6.85,-3.43 -65.19,-27.45 -84.08,-37.75 -17.16,-12.01 -32.61,-20.58 -51.48,-18.88 -18.88,1.72 -30.89,6.87 -20.59,6.87 10.31,1.72 37.75,5.15 36.03,6.87 0,3.42 -60.06,10.29 -65.2,6.85 m 0,18.89 c 3.44,5.14 32.6,39.46 36.04,34.32 3.44,-5.15 18.87,-22.31 30.88,-29.18 13.73,-5.14 27.47,-10.3 20.59,-15.44 -6.86,-3.43 -68.64,0 -77.21,3.44 -8.57,3.43 -13.73,3.43 -10.3,6.86 m 46.33,51.47 c 5.16,8.59 30.9,25.75 44.62,20.6 13.72,-3.43 54.91,-15.44 75.51,-15.44 22.3,0 27.46,6.86 25.73,0 0,-8.57 -25.73,-41.19 -51.47,-37.76 -27.46,1.72 -72.09,22.32 -85.81,24.03 -13.72,0 -13.72,6.86 -6.85,10.29 8.58,5.15 -1.73,-1.72 -1.73,-1.72 m -231.67,187.06 c 1.71,5.16 60.07,78.94 120.13,85.8 60.06,5.14 151.02,-3.43 178.47,-20.6 27.46,-17.15 70.35,-70.35 68.65,-80.64 -1.73,-10.3 -27.47,-68.65 -46.34,-68.65 -17.15,1.71 -320.91,72.07 -322.61,75.51 0,5.14 0,3.43 1.7,8.58 m 319.19,-114.97 c 3.43,-1.72 121.85,-25.75 121.85,-32.62 0,-6.86 -13.74,-15.44 -27.47,-24.01 -12.01,-8.59 -13.72,-8.59 -13.72,-5.16 -1.71,5.16 3.43,29.17 1.71,34.32 -3.42,3.43 -5.15,-1.71 -10.29,-8.58 -5.16,-5.14 -20.61,-17.17 -56.63,-15.44 -36.04,0 -72.07,10.3 -66.93,12.01 3.44,3.43 48.06,41.19 51.48,39.48 m 61.78,75.5 -1.71,-1.72 c 0,-6.87 -13.74,-34.32 -22.3,-41.19 -8.6,-6.85 -1.73,-10.29 8.56,-12.01 10.3,0 58.34,-17.16 56.64,-12.01 -1.72,6.87 -29.18,73.8 -41.19,66.93 m 27.46,17.16 c -15.45,20.6 -29.17,36.04 -34.33,32.61 -3.44,-3.43 5.16,-22.32 20.61,-42.9 15.43,-22.32 30.88,-36.04 34.32,-34.33 3.43,3.42 -5.17,22.3 -20.6,44.62 m -168.18,133.85 c -39.46,-1.71 -75.5,15.45 -130.41,-5.14 -54.93,-20.6 -113.27,-56.64 -127,-82.37 -15.45,-27.47 -15.45,-36.05 -12.01,-41.19 3.43,-5.15 -10.3,-24.03 -17.16,-20.6 -6.85,1.73 -29.17,49.77 -41.18,77.23 -13.73,27.46 -32.62,70.36 -39.49,58.34 -6.84,-12.01 10.31,-97.81 0,-94.38 -8.55,3.44 -42.89,41.19 -56.61,48.06 -15.45,8.57 -17.18,5.13 -15.45,-5.16 1.71,-8.58 27.46,-51.48 17.16,-41.17 -10.29,8.57 -82.35,39.46 -159.59,36.02 -77.23,-1.71 -80.66,12.02 -96.1,18.88 -13.74,6.87 -20.59,8.59 -17.17,-3.44 1.73,-10.29 25.76,-42.89 37.75,-66.92 12.02,-24.02 39.48,-25.73 29.19,-32.6 -10.31,-5.16 -32.61,-6.87 -66.94,-1.73 -34.32,5.16 -58.35,10.31 -68.64,18.89 -10.3,8.58 -12,12.01 -12,5.15 0,-6.87 17.15,-48.05 22.29,-53.2 6.87,-5.15 18.89,-12.02 8.6,-13.74 -12.01,-1.7 -111.561,66.94 -168.182,77.23 -54.926,8.59 -82.368,6.86 -89.239,1.72 -6.859,-5.15 6.871,-3.44 13.739,-10.3 6.851,-6.86 41.191,-25.75 48.039,-34.32 6.871,-8.58 13.722,-10.31 -3.434,-8.58 -15.437,1.72 -65.203,24.02 -73.793,18.88 -8.582,-6.87 1.723,-12.02 10.301,-15.45 8.578,-5.16 27.449,-18.87 30.883,-30.88 5.164,-12.03 -10.289,3.42 -34.321,6.85 -22.3,5.16 -22.3,6.87 -24.007,0 -1.727,-5.15 5.144,-3.43 10.289,-12.01 3.418,-10.3 18.863,-8.57 -5.145,-5.14 -24.031,1.71 -78.953,-5.16 -104.695,-12.02 -27.445,-8.58 -29.168,-13.72 -65.195,-13.72 -36.043,-1.71 -41.184,6.87 -42.911,1.71 0,-6.87 20.59,-30.89 42.911,-46.33 22.3,-13.73 46.332,-20.58 56.621,-24.03 10.3,-3.42 29.172,1.71 17.172,-8.58 -13.739,-10.29 -54.926,-1.71 -48.055,-10.29 5.148,-10.3 34.316,-25.74 56.637,-30.9 22.304,-5.14 37.75,0 37.75,-6.85 0,-6.88 -109.836,-37.75 -128.704,-44.63 -18.886,-8.57 -36.043,-17.16 -80.664,-8.57 -44.621,8.57 -58.347,12.01 -65.218,8.57 -8.575,-1.71 8.582,-24.02 20.597,-30.89 12.016,-6.86 32.606,-3.42 24.028,-12.02 -6.868,-10.27 -24.028,1.73 -65.215,-18.87 -41.184,-20.59 -46.328,-25.74 -37.75,-27.45 8.574,0 27.461,6.86 39.476,0 13.723,-6.87 61.762,-29.18 75.504,-29.18 13.739,-1.71 -5.144,-5.14 -20.594,-6.86 -17.16,0 -116.707,-30.89 -144.152,-60.05 -29.172,-30.91 -61.781,-72.09 -82.371,-89.23 -18.871,-17.18 -27.449,-25.75 -20.598,-25.75 8.582,0 54.911,6.86 63.504,18.87 8.586,12.01 30.887,25.74 27.45,13.74 -3.434,-12.02 -60.051,-96.11 -51.477,-97.82 8.582,0 6.855,8.58 17.16,12.01 10.309,1.71 24.027,0 17.16,-6.87 -6.851,-6.86 -48.039,-84.08 -72.07,-114.97 -22.316,-29.18 -61.781,-51.48 -48.051,-54.92 13.719,-5.16 53.195,10.3 78.934,27.46 24.027,15.44 32.609,12.01 25.738,5.14 -6.871,-6.86 -58.348,-49.77 -44.621,-51.47 13.742,-3.44 53.219,8.57 66.937,10.3 13.727,1.71 30.879,5.14 22.305,0 -8.578,-6.87 -97.824,-39.49 -77.211,-48.05 22.301,-6.87 32.59,3.42 51.477,-1.73 18.863,-5.14 36.035,0 34.308,-10.28 -3.433,-10.3 -13.718,-135.57 -49.765,-229.96 -37.746,-96.1 -75.5,-169.9 -84.078,-243.68 -8.579,-73.8 -10.305,-389.55 -8.579,-482.212 1.708,-92.68 -3.433,-228.242 -6.871,-257.426 -3.433,-30.879 -1.711,-46.328 0,-73.773 0,-29.188 17.161,-187.055 32.606,-178.481 15.453,8.571 24.031,61.782 25.742,75.508 3.434,13.731 13.734,60.055 22.316,48.043 8.563,-12.004 13.723,-17.148 24.032,-8.574 12.008,8.574 6.851,24.023 20.574,17.152 13.742,-6.851 37.766,-8.578 37.766,-3.433 0,5.16 39.46,63.5 32.609,84.101 -5.16,18.875 -10.305,18.875 -3.434,27.453 6.848,6.86 24.008,37.754 24.008,60.063 1.727,24.019 -12.015,277.999 -8.578,322.619 3.434,44.63 5.145,54.91 10.305,44.63 5.144,-10.31 152.73,-183.624 159.582,-193.925 6.871,-12.015 8.586,-15.449 13.742,-39.465 5.144,-22.316 8.582,-29.175 27.445,-34.328 18.887,-5.144 42.899,-18.887 10.309,-24.031 -34.317,-5.145 -54.93,-15.438 -68.649,-37.75 -12.015,-24.02 -99.531,-114.977 -113.257,-145.867 -15.446,-30.883 -15.446,-44.617 -8.575,-63.5 8.575,-17.149 20.59,-25.727 20.59,-36.028 -1.726,-12.011 -6.871,-18.875 0,-27.461 5.145,-6.855 -1.726,-18.882 -8.597,-32.601 -6.852,-13.731 -18.864,-36.043 -36.024,-46.324 -15.453,-10.301 -18.867,-30.903 -15.453,-41.188 3.437,-10.301 -22.297,-42.906 -36.023,-58.355 -13.743,-17.168 -49.766,-72.067 -49.766,-90.953 0,-18.875 5.144,-34.317 8.582,-39.473 1.707,-6.859 6.852,-8.574 5.141,-17.152 -1.723,-8.582 -36.039,-66.934 -32.606,-89.2387 C 307.262,57.7617 32.6992,47.4648 12.1055,47.4648 -10.1992,45.7461 94.4766,28.582 103.063,30.3086 c 6.867,0 614.343,18.875 622.921,15.4375 8.598,-3.4219 12.016,-24.0156 36.039,-27.4531 24.032,-1.7188 180.2,1.707 193.922,6.8711 12.016,5.1445 25.739,-10.3047 39.461,-15.46097 15.454,-3.41407 178.474,8.58987 228.254,13.73437 49.76,6.8711 132.14,18.8867 144.13,29.1797 13.75,10.2969 15.46,13.7148 15.46,13.7148 0,0 466.77,3.4532 489.07,3.4532 22.3,1.7109 142.44,-12.0235 144.15,3.414 1.71,15.461 3.44,132.1368 -3.43,147.5898 -5.15,15.449 -27.47,24.031 -22.31,29.176 5.15,5.148 6.86,1.715 17.16,5.148 10.29,5.145 0,87.52 -17.16,121.832 -18.88,34.328 -22.3,41.188 -18.88,53.203 1.72,12.004 10.29,48.051 0,63.497 -10.29,15.441 -13.72,22.3 -5.15,29.171 6.87,5.149 -8.57,111.543 -17.15,121.836 -8.6,10.305 -13.74,12.016 -29.17,12.016 -13.74,0 -15.45,5.152 -6.87,8.586 10.3,1.711 18.88,1.711 22.3,13.726 1.73,13.731 -13.72,118.407 -20.6,144.149 -6.85,25.734 1.73,34.324 -32.58,32.601 -34.32,0 -192.21,-25.738 -193.93,-34.316 -1.72,-8.582 5.15,-216.219 -3.43,-262.57 -10.29,-44.614 -37.75,-142.414 -139.01,-190.473 -101.24,-48.051 -106.38,-54.922 -108.11,-44.617 -3.41,10.297 -3.41,219.652 17.16,331.203 18.88,111.547 96.12,394.693 118.41,497.653 22.33,102.97 82.38,429.02 87.52,502.81 5.15,75.51 15.45,159.6 20.6,154.46 3.43,-6.88 18.87,-37.77 42.91,-32.62 22.3,5.14 41.18,27.47 39.46,15.44 0,-12.01 -32.61,-60.06 -37.75,-73.78 -5.15,-12.03 -8.58,-13.74 20.59,-10.31 29.17,1.71 12.02,-15.43 0,-46.32 -12.01,-30.9 -49.76,-128.72 -46.34,-207.66 5.16,-80.64 30.89,-149.28 66.93,-149.28 34.32,0 49.77,6.86 58.35,12.01 6.87,5.14 30.88,0 6.87,10.3 -24.03,10.29 -34.34,13.72 -36.04,39.46 -1.71,25.74 -1.71,75.51 18.86,101.24 20.6,27.46 18.89,25.75 17.18,13.74 -1.73,-10.3 -36.04,-49.76 -1.73,-41.19 34.32,6.87 54.93,39.47 73.8,63.5 20.59,25.73 20.59,85.81 24.03,96.09 5.14,10.3 111.54,128.71 94.37,278 -17.15,149.31 -34.32,183.63 -34.32,199.07 0,17.17 39.48,139 32.61,188.77 -6.86,49.76 -13.73,85.8 -20.6,92.67 -5.14,8.57 -8.57,17.15 -1.7,15.44 8.57,-3.43 24.01,-6.87 32.59,1.71 8.59,10.31 36.04,61.79 27.46,72.09 -8.58,12.01 -39.46,13.72 -53.19,44.61 -15.45,29.17 -17.17,36.03 -6.86,32.61 12.01,-1.72 46.32,5.14 54.9,20.58 8.58,15.46 5.15,42.91 -3.43,32.61 -10.29,-10.3 -15.45,-6.86 -18.88,1.72 -3.42,8.58 -1.71,90.96 3.43,114.97 3.44,24.04 -34.32,111.55 -94.39,149.3 -61.76,37.76 -89.22,56.63 -130.41,56.63 z M 921.613,1646.84 c 1.719,-3.43 6.867,-8.58 5.16,-34.33 -1.726,-25.74 24.008,-149.29 32.59,-188.77 8.598,-39.46 87.527,-142.42 97.817,-149.29 10.31,-8.58 58.35,8.59 75.52,22.31 15.44,12.02 60.06,18.88 77.22,17.17 18.88,0 53.2,-37.76 68.65,-42.9 13.72,-3.44 42.89,3.42 53.18,36.02 8.6,32.61 34.34,36.05 60.07,53.21 25.74,18.87 58.34,41.18 78.94,118.41 22.3,75.5 54.91,350.07 56.64,377.53 3.42,27.45 6.85,32.61 18.86,32.61 10.31,0 -3.42,-70.37 -5.14,-102.97 -3.44,-30.89 -30.88,-166.46 -37.75,-231.67 -6.87,-65.21 -75.5,-281.43 -87.52,-324.33 -12.01,-42.91 -54.9,-176.76 -126.99,-362.098 -70.36,-187.047 -77.23,-506.23 -80.65,-530.254 -3.44,-24.039 -6.87,-20.601 -22.3,-24.039 -13.75,-1.703 -27.48,-5.144 -32.63,-17.148 -3.42,-12.016 -10.29,-97.813 -10.29,-97.813 0,0 -6.87,0 -44.62,13.715 -37.75,15.442 -39.46,17.164 -44.6,44.621 -3.44,27.461 -34.34,18.875 -49.79,24.02 -13.722,6.871 0,18.875 6.88,39.476 8.57,20.594 -30.891,44.621 -37.762,60.063 -6.864,13.73 15.457,53.195 29.172,97.816 13.75,44.617 44.62,250.535 58.35,267.703 15.45,15.438 32.61,126.993 29.17,142.434 -3.43,17.16 13.75,46.328 20.6,82.375 8.57,36.029 -46.34,80.649 -56.62,82.369 -8.6,3.44 -199.067,147.58 -205.938,147.58 -8.574,0 0,37.75 -6.867,72.08 -5.145,34.31 -29.176,51.48 -10.305,68.64 18.887,15.45 24.043,116.69 24.043,147.58 -1.726,29.17 -66.941,58.34 -73.793,72.08 -6.871,12.01 1.711,17.16 20.59,17.16 18.871,0 53.203,-5.15 70.344,15.43 17.179,20.6 46.347,54.92 49.769,53.21 z M 689.957,557.137 c 5.145,3.433 6.856,5.14 10.289,6.867 3.438,0 1.711,327.766 6.856,329.476 6.871,1.727 10.304,-314.039 10.304,-322.605 0,-6.871 10.305,-10.305 18.883,-13.738 10.289,-1.711 13.719,-5.145 18.863,-30.887 6.871,-25.742 37.758,-58.352 46.348,-73.793 8.586,-17.152 -72.082,-231.668 -72.082,-235.102 -1.707,-5.152 -15.445,-6.863 -22.316,5.141 -5.145,12.016 -24.016,3.438 -32.594,3.438 -6.867,0 0,5.144 -3.434,18.886 -1.726,15.438 -30.883,29.172 -53.199,42.895 -24.027,12.004 -46.332,-3.43 -56.621,-8.582 -12.031,-3.434 -5.16,6.871 5.144,24.027 12.012,17.16 20.598,41.18 20.598,51.477 1.703,12.015 -6.871,17.164 -8.586,36.043 -1.726,18.879 106.403,161.312 111.547,166.457" />
          </g>
        </g>
      </g>
      <text
         xml:space="preserve"
         style="font-size:22.5778px;line-height:1.25;font-family:Fita_Poluustav;-inkscape-font-specification:Fita_Poluustav;stroke-width:0.264583"
         x="77.029015"
         y="17.689075"
         id="text223"><tspan
           id="tspan221"
           style="font-size:22.5778px;stroke-width:0.264583"
           x="77.029015"
           y="17.689075">Скриня</tspan></text>
      <text
         xml:space="preserve"
         style="font-size:22.5778px;line-height:1.25;font-family:Fita_Poluustav;-inkscape-font-specification:Fita_Poluustav;stroke-width:0.264583"
         x="90.95446"
         y="40.019962"
         id="text277"><tspan
           id="tspan275"
           style="font-size:22.5778px;stroke-width:0.264583"
           x="90.95446"
           y="40.019962">Прадіда</tspan></text>
    </g>
  </g>
</svg>
